<svg xmlns="http://www.w3.org/2000/svg" viewBox="0 0 1600 900" role="img" aria-label="">
  <defs>
    <linearGradient id="bg" x1="0" x2="1" y1="0" y2="1">
      <stop offset="0" stop-color="#071016"/>
      <stop offset=".58" stop-color="#143242"/>
      <stop offset="1" stop-color="#0b4b3f"/>
    </linearGradient>
    <radialGradient id="glow" cx="74%" cy="33%" r="55%">
      <stop offset="0" stop-color="#7bdff2" stop-opacity=".38"/>
      <stop offset=".52" stop-color="#2456d6" stop-opacity=".12"/>
      <stop offset="1" stop-color="#071016" stop-opacity="0"/>
    </radialGradient>
    <linearGradient id="leftFade" x1="0" x2="1">
      <stop offset="0" stop-color="#000" stop-opacity=".88"/>
      <stop offset=".48" stop-color="#000" stop-opacity=".5"/>
      <stop offset="1" stop-color="#000" stop-opacity="0"/>
    </linearGradient>
    <filter id="softShadow" x="-20%" y="-20%" width="140%" height="140%">
      <feDropShadow dx="0" dy="18" stdDeviation="16" flood-color="#000" flood-opacity=".42"/>
    </filter>
  </defs>

  <rect width="1600" height="900" fill="url(#bg)"/>
  <rect width="1600" height="900" fill="url(#glow)"/>

  <g opacity=".2" stroke="#fff" stroke-width="1">
    <path d="M330 0 600 900M455 0 720 900M580 0 840 900M705 0 960 900M830 0 1080 900M955 0 1200 900M1080 0 1320 900M1205 0 1440 900M1330 0 1560 900"/>
    <path d="M0 140h1600M0 250h1600M0 360h1600M0 470h1600M0 580h1600M0 690h1600M0 800h1600"/>
  </g>

  <g filter="url(#softShadow)">
    <path d="M705 635 1490 584 1600 790 606 832Z" fill="#070a0e" opacity=".72"/>
    <rect x="830" y="214" width="390" height="278" rx="28" fill="#081016"/>
    <rect x="854" y="238" width="342" height="230" rx="18" fill="#153d65"/>
    <rect x="1184" y="252" width="315" height="282" rx="28" fill="#071016"/>
    <rect x="1208" y="276" width="267" height="234" rx="18" fill="#0b604f"/>
    <rect x="1010" y="506" width="430" height="238" rx="28" fill="#070a0e"/>
    <rect x="1036" y="528" width="378" height="188" rx="18" fill="#273a70"/>
  </g>

  <g stroke="#87e7c4" stroke-opacity=".55" stroke-width="2" fill="none">
    <path d="M885 328 954 278 1021 346 1093 292 1160 378 1234 326 1314 384 1396 318"/>
    <path d="M918 412 995 380 1072 430 1158 398 1239 450 1346 406"/>
    <path d="M1072 570 1144 608 1220 562 1296 648 1380 592"/>
  </g>

  <g fill="#f0c95a">
    <circle cx="885" cy="328" r="6"/><circle cx="954" cy="278" r="6"/><circle cx="1021" cy="346" r="6"/>
    <circle cx="1093" cy="292" r="6"/><circle cx="1160" cy="378" r="6"/><circle cx="1234" cy="326" r="6"/>
    <circle cx="1314" cy="384" r="6"/><circle cx="1396" cy="318" r="6"/>
    <circle cx="918" cy="412" r="5"/><circle cx="995" cy="380" r="5"/><circle cx="1072" cy="430" r="5"/>
    <circle cx="1158" cy="398" r="5"/><circle cx="1239" cy="450" r="5"/><circle cx="1346" cy="406" r="5"/>
  </g>

  <g fill="#dbe8ef" opacity=".78">
    <rect x="1250" y="320" width="35" height="31" rx="6"/><rect x="1303" y="320" width="35" height="31" rx="6"/>
    <rect x="1356" y="320" width="35" height="31" rx="6"/><rect x="1409" y="320" width="35" height="31" rx="6"/>
    <rect x="1250" y="374" width="35" height="31" rx="6"/><rect x="1303" y="374" width="35" height="31" rx="6"/>
    <rect x="1356" y="374" width="35" height="31" rx="6"/><rect x="1409" y="374" width="35" height="31" rx="6"/>
    <rect x="1250" y="428" width="35" height="31" rx="6"/><rect x="1303" y="428" width="35" height="31" rx="6"/>
    <rect x="1356" y="428" width="35" height="31" rx="6"/><rect x="1409" y="428" width="35" height="31" rx="6"/>
  </g>

  <g fill="#f2f0e6" opacity=".74">
    <path d="M745 690 830 680 850 740 765 752Z"/>
    <path d="M848 678 948 668 965 736 864 748Z"/>
    <path d="M974 690 1080 680 1098 742 990 756Z"/>
  </g>

  <g opacity=".32" fill="none" stroke="#fff" stroke-width="3">
    <circle cx="1450" cy="190" r="84"/><circle cx="1450" cy="190" r="118"/><circle cx="1450" cy="190" r="154"/>
    <circle cx="1276" cy="657" r="92"/><circle cx="1276" cy="657" r="128"/><circle cx="1276" cy="657" r="164"/>
    <circle cx="778" cy="380" r="100"/><circle cx="778" cy="380" r="138"/>
  </g>

  <rect width="1600" height="900" fill="url(#leftFade)"/>
</svg>
